<?xml version="1.0" encoding="utf-8"?>
<!-- Generator: Adobe Illustrator 28.0.0, SVG Export Plug-In . SVG Version: 6.00 Build 0)  -->
<svg version="1.1" id="Layer_1" xmlns="http://www.w3.org/2000/svg" xmlns:xlink="http://www.w3.org/1999/xlink" x="0px" y="0px"
	 viewBox="0 0 1200 1200" style="enable-background:new 0 0 1200 1200;" xml:space="preserve">
<style type="text/css">
	.st0{fill:#FFC112;}
	.st1{fill:url(#SVGID_1_);}
	.st2{fill:#FFCF01;}
	.st3{fill:#FFE139;}
	.st4{fill:url(#SVGID_00000106841330633734863570000017256434980068002186_);}
	.st5{fill:url(#SVGID_00000111912618749527142310000000601104777003170446_);}
	.st6{fill:url(#SVGID_00000077286761625434418150000015324325720562415259_);}
	.st7{fill:url(#SVGID_00000132807741337489700220000017605209028654185622_);}
	.st8{fill:url(#SVGID_00000080204815160150894590000010755714236082855070_);}
	.st9{fill:url(#SVGID_00000157986822723035649270000006804728111876852869_);}
	.st10{fill:url(#SVGID_00000129175520353845623010000012110604106275588784_);}
	.st11{fill:url(#SVGID_00000094588146174048949800000013707773554304568767_);}
	.st12{fill:url(#SVGID_00000029724394385583173570000005641439552136484992_);}
	.st13{fill:url(#SVGID_00000127029278071348107900000004581704467830582676_);}
	.st14{fill:url(#SVGID_00000167363231787744994450000009864529421581935284_);}
</style>
<g>
	<linearGradient id="SVGID_1_" gradientUnits="userSpaceOnUse" x1="224.9661" y1="550.9269" x2="426.1609" y2="708.4081">
		<stop  offset="0" style="stop-color:#FFB200"/>
		<stop  offset="1" style="stop-color:#FF8C00"/>
	</linearGradient>
	<path class="st1" d="M480.7,654.1c-0.7-4.5-5.8-6.9-9.6-5c-9.6,4.7-19.8,8.3-29.7,12.5c-8.5,3.6-17.1,7.3-25.6,10.8
		c-2.9,1.2-4.3,3.3-4.5,6.2c-0.2,3.3-1,6.5-1.7,9.6c-1.9,8.2-4.7,16.1-9.7,23c-6.7,9.3-9,9.7-18.7,3.9c-10.4-6.3-17.3-16.1-25-25
		c-0.9-1-0.2-1.6,0.5-2.3c9.5-10.4,18.9-20.8,28.4-31.2c10.8-11.8,22-23.2,32.1-35.5c11.6-14.1,17.5-30.2,15.6-48.8
		c-1.5-14.6-7.6-27-17.6-37.6c-8.8-9.3-19.1-16.9-29.3-24.7c-2.2-1.7-4.3-1.9-6.6-0.5c-2.5,1.5-4.8,3.2-4.7,6.5
		c0.1,4.2,2.5,7,5.8,9.3c10.5,7.4,20.7,15,28.5,25.3c7.9,10.5,11.1,22.2,8.9,35.2c-2.1,12.2-8.4,22.3-16.7,31.3
		c-7.1,7.7-14.2,15.4-21.3,23.2c-9.8,10.8-19.8,21.4-29.5,32.4c-1.6,1.8-2.7,5.2-5.1,4.7c-2-0.4-3.5-3.3-5.1-5.1
		c-10.6-12.4-21.9-24.2-33-36.3c-7.6-8.4-15.6-16.4-22.6-25.3c-7.1-9-11.4-19.1-12-30.6c-0.7-13.9,4.9-25.4,14.3-35.2
		c7.2-7.5,15.5-13.9,24.1-19.7c2.2-1.5,3.8-3.3,4.9-5.8c1.5-3.5,0.8-6.3-2-8.6c-3.6-2.9-5.7-3.1-9.1-0.6
		c-10.7,7.7-21.1,15.8-30.1,25.4c-10,10.7-15.8,23.4-16.9,38.1c-1.3,16.9,3.9,31.9,14.2,45.2c6.8,8.8,14.5,16.7,21.9,24.8
		c13.1,14.2,26.1,28.5,39.2,42.8c2.5,2.7,2.5,2.8,0.1,5.6c-3.4,3.9-6.7,7.7-10.1,11.5c-5.8,6.6-12.7,11.7-20.8,15.2
		c-2.6,1.1-4.5,0.7-6.5-1.4c-10.4-10.4-13.9-23.7-16-37.5c-0.6-3.7-1.8-6.3-5.4-7.8c-5-2.1-9.9-4.2-14.9-6.3
		c-13.4-5.7-27.1-10.9-40.3-17c-3.8-1.8-8.5,1.1-9.1,5.5c-0.1,0.9-0.2,1.8-0.4,2.7c-1.3,8.5-1.6,17.1,0,25.6
		c3.1,16.5,11.1,30.2,24.3,40.6c16,12.6,34.1,16.8,54.1,14c2.4-0.3,5.1-1.9,7.6,0.1c7.1,5.8,14.9,10.5,22.5,15.5
		c4.3,2.8,7.9,6.3,10.5,10.9c4.8,8.4,7.3,17.3,6.3,25.7c0,4.2,0,7.1,0,10c0,2.5,0.8,4.7,2.5,6.5c2.7,2.9,8.2,3.8,12.5,2.2
		c3.8-1.5,5.7-4.6,5.9-9.3c0.2-6.8-0.9-13.8,0.6-20.5c2.3-10.1,6.6-19,15.6-25.1c7.7-5.2,15.7-10,22.8-16c1-0.8,2.1-1,3.3-0.8
		c9.1,1.8,18.2,2.1,27.4,0.5c17.9-3.1,32.2-12.1,43.1-26.5c7.3-9.6,11.4-20.6,12.8-32.6C482.5,670,482,662,480.7,654.1z
		 M279.5,722.3c-0.2,0.7-0.9,0.4-1.4,0.4c-7,0.4-13.8-1.1-20.3-3.5c-7.4-2.7-13.8-7-19.2-12.6c-7.4-7.7-11.8-17-13.7-27.4
		c-0.7-3.6-1.5-7.2-0.4-11.2c7.1,2.9,14,5.8,20.9,8.7c5.5,2.3,11,4.7,16.6,6.8c2.8,1,3.5,3.1,3.9,5.5c2.2,11.7,6,22.8,13.2,32.4
		C279.3,721.7,279.6,722.1,279.5,722.3z M359.4,744.2c-6,5.2-10.4,11.5-14.1,19.4c-6.3-16-19.6-24.1-33.8-32.8
		c14.8-6.8,23.8-18.9,33.9-30c9.9,11,18.5,23.4,33.1,29.4C372.2,735.1,365.4,739.1,359.4,744.2z M456.8,701.5
		c-9.2,12.3-21.7,19.4-36.9,21.7c-3.4,0.5-6.9,1.2-10.8,0.4c2.4-3.6,4.9-6.8,6.9-10.3c4.7-8.5,7.3-17.8,9.4-27.2
		c0.3-1.4,0.9-2.1,2.1-2.5c12.7-5.3,25.3-10.5,38-15.8c1.5-0.6,1.7,0,1.7,1.2C467.1,680.9,464,691.9,456.8,701.5z"/>
	
		<linearGradient id="SVGID_00000052807157800411924510000010058098063379508642_" gradientUnits="userSpaceOnUse" x1="293.1712" y1="742.8533" x2="385.0819" y2="810.1051">
		<stop  offset="0" style="stop-color:#FE8D00"/>
		<stop  offset="1" style="stop-color:#FF7500"/>
	</linearGradient>
	<path style="fill:url(#SVGID_00000052807157800411924510000010058098063379508642_);" d="M345.5,839.6c-4.8,0-9.5-0.2-14.2,0.1
		c-6.7,0.4-9.2-2.6-11.4-7.7c-4.7-11.1-9.3-22.3-14-33.5c-5.7-13.5-11.4-27-17-40.5c-2.2-5.2,0.2-9.4,5.6-10.6
		c2.5-0.6,4.5,0.5,6,2.3c3.7,4.2,7.2,8.4,10.8,12.7c2.4,2.8,4.8,5.7,7.3,8.5c5.1,5.6,6.7,12.4,6.6,19.7c0,4.6-0.4,9.4,0.7,13.9
		c2.9,11.7,12.7,15.5,22.8,14.2c11.7-1.5,16.6-9.9,16.9-20.6c0.2-4.8-0.4-9.6,0.5-14.5c0.9-5.2,3.2-9.6,6.7-13.5
		c6-6.6,11.9-13.4,17.5-20.3c2.2-2.7,5.9-3.2,8.9-1.6c3.3,1.8,4.9,5.5,3.5,9.1c-2,5.3-4.3,10.4-6.5,15.6
		c-8.4,19.9-16.8,39.7-25.2,59.6c-1.8,4.4-4.4,7.7-10.8,7.3C355.4,839.3,350.4,839.6,345.5,839.6z"/>
</g>
<g>
	<path d="M585.2,671.5c-5.6,2.1-16.6,5-28.4,5c-14.9,0-26.2-3.8-34.5-11.8c-7.8-7.5-12.4-19.1-12.3-32.4c0-27.9,19.9-45.8,49-45.8
		c10.9,0,19.4,2.2,23.4,4.2l-3.5,12.9c-4.8-2.1-10.7-3.8-20-3.8c-18.8,0-32,11.1-32,31.7c0,20,12.3,31.9,30.6,31.9
		c5.8,0,10.1-0.8,12.2-1.8v-22h-15.6v-12.7h31.1V671.5z"/>
	<path d="M601.4,582.7h16.2v37.9h0.3c2-3,4.6-5.5,8-7.3c3.1-1.8,6.9-2.9,11-2.9c10.9,0,22.2,7.2,22.2,27.6v37.5H643v-35.7
		c0-9.3-3.4-16.2-12.3-16.2c-6.3,0-10.7,4.2-12.4,9c-0.5,1.3-0.7,3-0.7,4.8v38.1h-16.2V582.7z"/>
	<path d="M712,675.6l-1-7.1h-0.4c-3.9,5-10.6,8.5-18.8,8.5c-12.8,0-20-9.3-20-19c0-16.1,14.3-24.2,37.8-24.1v-1
		c0-4.2-1.7-11.1-12.9-11.1c-6.3,0-12.8,2-17.1,4.7l-3.1-10.5c4.7-2.9,12.9-5.6,23-5.6c20.4,0,26.3,12.9,26.3,26.8v23
		c0,5.8,0.3,11.4,0.9,15.3H712z M710,644.5c-11.4-0.3-22.2,2.2-22.2,11.9c0,6.3,4.1,9.2,9.2,9.2c6.4,0,11.1-4.2,12.6-8.8
		c0.4-1.2,0.5-2.5,0.5-3.5V644.5z"/>
	<path d="M736.6,666.3l23.9-30.6c3.3-3.9,6-7.1,9.4-10.7v-0.3h-31v-12.8h50.6v9.8l-23.4,30c-3.1,3.8-6.1,7.5-9.4,10.9v0.3h33.6v12.8
		h-53.8V666.3z"/>
	<path d="M812,648.2c0.4,11.5,9.4,16.5,19.6,16.5c7.5,0,12.8-1,17.7-2.9l2.4,11.1c-5.5,2.2-13.1,3.9-22.2,3.9
		c-20.7,0-32.8-12.7-32.8-32.2c0-17.7,10.7-34.3,31.1-34.3c20.7,0,27.5,17,27.5,31c0,3-0.3,5.4-0.5,6.8H812z M840,637
		c0.1-5.9-2.5-15.6-13.2-15.6c-9.9,0-14.1,9-14.8,15.6H840z"/>
	<path d="M868.1,582.7h16.2v92.9h-16.2V582.7z"/>
	<path d="M901.7,582.7h16.2v92.9h-16.2V582.7z"/>
	<path d="M946.7,648.2c0.4,11.5,9.4,16.5,19.6,16.5c7.5,0,12.8-1,17.7-2.9l2.4,11.1c-5.5,2.2-13.1,3.9-22.2,3.9
		c-20.7,0-32.8-12.7-32.8-32.2c0-17.7,10.7-34.3,31.1-34.3c20.7,0,27.5,17,27.5,31c0,3-0.3,5.4-0.5,6.8H946.7z M974.7,637
		c0.1-5.9-2.5-15.6-13.2-15.6c-9.9,0-14.1,9-14.8,15.6H974.7z"/>
	<path d="M578.6,800.1c-3.7,1.8-11.9,3.8-22.6,3.8c-30.5,0-46.2-19-46.2-44.1c0-30.1,21.5-46.8,48.1-46.8c10.3,0,18.2,2.1,21.7,3.9
		l-4.1,15.8c-4.1-1.7-9.7-3.3-16.7-3.3c-15.8,0-28.1,9.5-28.1,29.2c0,17.7,10.5,28.8,28.3,28.8c6,0,12.7-1.3,16.6-2.9L578.6,800.1z"
		/>
	<path d="M590.7,709.7h19.9v36.5h0.3c2.1-2.7,4.7-4.8,7.8-6.5c2.9-1.6,6.7-2.5,10.3-2.5c12.7,0,22.4,8.8,22.4,28v37.4h-19.9v-35.2
		c0-8.4-2.9-14.1-10.3-14.1c-5.2,0-8.5,3.4-9.9,6.9c-0.5,1.3-0.7,3-0.7,4.4v37.9h-19.9V709.7z"/>
	<path d="M703.7,802.6l-1.2-6.4h-0.4c-4.2,5.1-10.7,7.8-18.3,7.8c-12.9,0-20.7-9.4-20.7-19.6c0-16.6,14.9-24.6,37.5-24.5V759
		c0-3.4-1.8-8.2-11.6-8.2c-6.5,0-13.5,2.2-17.7,4.8l-3.7-12.8c4.4-2.5,13.2-5.6,24.9-5.6c21.3,0,28.1,12.6,28.1,27.6V787
		c0,6.1,0.3,12,0.9,15.6H703.7z M701.3,772.4c-10.5-0.1-18.6,2.4-18.6,10.1c0,5.1,3.4,7.6,7.8,7.6c5,0,9-3.3,10.3-7.3
		c0.3-1,0.4-2.2,0.4-3.4V772.4z"/>
	<path d="M757.6,720.3v18.3h14.3v14.6h-14.3v23.2c0,7.7,1.8,11.2,7.8,11.2c2.5,0,4.4-0.3,5.9-0.5l0.1,15c-2.6,1-7.3,1.7-12.9,1.7
		c-6.4,0-11.8-2.2-14.9-5.5c-3.7-3.8-5.5-9.9-5.5-19v-26.2h-8.5v-14.6h8.5v-13.9L757.6,720.3z"/>
</g>
</svg>
